<svg version="1.1" viewBox="0.0 0.0 960.0 720.0" fill="none" stroke="none" stroke-linecap="square" stroke-miterlimit="10" xmlns:xlink="http://www.w3.org/1999/xlink" xmlns="http://www.w3.org/2000/svg"><clipPath id="p.0"><path d="m0 0l960.0 0l0 720.0l-960.0 0l0 -720.0z" clip-rule="nonzero"/></clipPath><g clip-path="url(#p.0)"><path fill="#000000" fill-opacity="0.0" d="m0 0l960.0 0l0 720.0l-960.0 0z" fill-rule="evenodd"/><path fill="#000000" d="m298.94672 145.93097c14.990967 0 29.140564 0.9217529 42.448883 2.7652435c13.308289 1.8435059 25.622284 4.9998016 36.941986 9.468872c11.319702 4.4132385 21.492126 10.223038 30.517303 17.429443c9.0251465 7.2063904 16.673584 16.144577 22.945312 26.814499c6.2717285 10.61409 11.090271 23.127518 14.455566 37.540314c3.365326 14.412811 5.0479736 31.004272 5.0479736 49.774445c0 28.155243 -3.7477417 51.506195 -11.243195 70.05292c-7.4954834 18.490814 -17.948364 33.2388 -31.358643 44.243927c-13.359283 10.949249 -29.370026 18.658417 -48.032227 23.127502c-18.6622 4.413208 -39.23654 6.6198425 -61.72296 6.6198425l-133.54185 0l0 -287.837zm-162.22353 -28.658005l0 345.40442l162.68242 0c17.285492 0 33.755157 -1.2010803 49.408966 -3.60318c15.704803 -2.4580383 30.236847 -6.368469 43.59613 -11.731354c13.410278 -5.362915 25.57132 -12.485504 36.483093 -21.367828c10.962769 -8.882294 20.268372 -19.691895 27.91684 -32.428802c7.6484375 -12.736877 13.563232 -27.68039 17.744385 -44.830505c4.232147 -17.205994 6.3482056 -36.869934 6.3482056 -58.991913c0 -33.01538 -4.640045 -60.584045 -13.920166 -82.70601c-9.229126 -22.121979 -22.002014 -39.83072 -38.318726 -53.12625c-16.265686 -13.351379 -35.48877 -22.792328 -57.66928 -28.322823c-22.180481 -5.5304947 -46.196594 -8.295738 -72.04834 -8.295738z" fill-rule="evenodd"/><path fill="#000000" d="m564.42426 117.272964l0 345.40442l259.05286 0l0 -29.41217l-230.37122 0l0 -315.99225z" fill-rule="evenodd"/><path stroke="#000000" stroke-width="1.0" stroke-linejoin="round" stroke-linecap="butt" d="m298.94672 145.93097c14.990967 0 29.140564 0.9217529 42.448883 2.7652435c13.308289 1.8435059 25.622284 4.9998016 36.941986 9.468872c11.319702 4.4132385 21.492126 10.223038 30.517303 17.429443c9.0251465 7.2063904 16.673584 16.144577 22.945312 26.814499c6.2717285 10.61409 11.090271 23.127518 14.455566 37.540314c3.365326 14.412811 5.0479736 31.004272 5.0479736 49.774445c0 28.155243 -3.7477417 51.506195 -11.243195 70.05292c-7.4954834 18.490814 -17.948364 33.2388 -31.358643 44.243927c-13.359283 10.949249 -29.370026 18.658417 -48.032227 23.127502c-18.6622 4.413208 -39.23654 6.6198425 -61.72296 6.6198425l-133.54185 0l0 -287.837zm-162.22353 -28.658005l0 345.40442l162.68242 0c17.285492 0 33.755157 -1.2010803 49.408966 -3.60318c15.704803 -2.4580383 30.236847 -6.368469 43.59613 -11.731354c13.410278 -5.362915 25.57132 -12.485504 36.483093 -21.367828c10.962769 -8.882294 20.268372 -19.691895 27.91684 -32.428802c7.6484375 -12.736877 13.563232 -27.68039 17.744385 -44.830505c4.232147 -17.205994 6.3482056 -36.869934 6.3482056 -58.991913c0 -33.01538 -4.640045 -60.584045 -13.920166 -82.70601c-9.229126 -22.121979 -22.002014 -39.83072 -38.318726 -53.12625c-16.265686 -13.351379 -35.48877 -22.792328 -57.66928 -28.322823c-22.180481 -5.5304947 -46.196594 -8.295738 -72.04834 -8.295738z" fill-rule="evenodd"/><path stroke="#000000" stroke-width="1.0" stroke-linejoin="round" stroke-linecap="butt" d="m564.42426 117.272964l0 345.40442l259.05286 0l0 -29.41217l-230.37122 0l0 -315.99225z" fill-rule="evenodd"/><path fill="#000000" fill-opacity="0.0" d="m0.001312336 491.87927l960.0 0l0 117.25983l-960.0 0z" fill-rule="evenodd"/><path fill="#ffffff" d="m144.40366 552.4342q0 5.15625 -1.078125 9.15625q-1.078125 4.0 -3.03125 6.96875q-1.953125 2.96875 -4.75 5.046875q-2.78125 2.0625 -6.203125 3.3125q-3.421875 1.25 -7.421875 1.828125q-4.0 0.5625 -8.421875 0.5625l-27.6875 0l0 -53.671875l27.609375 0q6.609375 0 12.265625 1.296875q5.671875 1.28125 9.828125 4.390625q4.15625 3.09375 6.515625 8.25q2.375 5.15625 2.375 12.859375zm-5.046875 0q0 -4.375 -0.859375 -7.734375q-0.859375 -3.359375 -2.46875 -5.84375q-1.59375 -2.484375 -3.90625 -4.15625q-2.296875 -1.6875 -5.1875 -2.71875q-2.890625 -1.03125 -6.296875 -1.453125q-3.390625 -0.4375 -7.21875 -0.4375l-22.734375 0l0 44.71875l22.734375 0q5.75 0 10.515625 -1.03125q4.765625 -1.03125 8.171875 -3.59375q3.421875 -2.5625 5.328125 -6.875q1.921875 -4.3125 1.921875 -10.875zm68.40625 26.875l-7.390625 -14.140625l-36.4375 0l-7.390625 14.140625l-5.34375 0l28.078125 -53.671875l5.75 0l28.078125 53.671875l-5.34375 0zm-25.59375 -48.953125l-15.859375 30.3125l31.6875 0l-15.828125 -30.3125zm93.00781 48.953125l-46.640625 -47.265625l0 47.265625l-4.875 0l0 -53.671875l5.390625 0l46.640625 47.421875l0 -47.421875l4.796875 0l0 53.671875l-5.3125 0zm23.367188 0l0 -53.671875l4.875 0l0 53.671875l-4.875 0zm22.96875 0l0 -53.671875l44.71875 0l0 4.5625l-39.40625 0l0 18.484375l37.421875 0l0 4.53125l-37.421875 0l0 21.515625l40.0 0l0 4.578125l-45.3125 0zm60.390625 0l0 -53.671875l4.875 0l0 49.09375l39.21875 0l0 4.578125l-44.09375 0zm86.171875 0l0 -53.671875l4.875 0l0 49.09375l39.21878 0l0 4.578125l-44.09378 0zm120.50003 -26.796875q0 7.21875 -2.625 12.484375q-2.609375 5.25 -7.1875 8.671875q-4.5625 3.40625 -10.78125 5.0625q-6.203125 1.640625 -13.390625 1.640625q-7.21875 0 -13.46875 -1.640625q-6.25 -1.65625 -10.859375 -5.0625q-4.609375 -3.421875 -7.234375 -8.671875q-2.609375 -5.265625 -2.609375 -12.484375q0 -4.8125 1.203125 -8.734375q1.21875 -3.921875 3.40625 -7.03125q2.1875 -3.109375 5.28125 -5.375q3.109375 -2.265625 6.921875 -3.765625q3.8125 -1.5 8.1875 -2.21875q4.375 -0.734375 9.171875 -0.734375q7.1875 0 13.390625 1.640625q6.21875 1.640625 10.78125 5.0625q4.578125 3.421875 7.1875 8.671875q2.625 5.25 2.625 12.484375zm-5.03125 0q0 -5.703125 -1.859375 -10.078125q-1.859375 -4.375 -5.5 -7.359375q-3.625 -3.0 -9.03125 -4.53125q-5.40625 -1.546875 -12.5625 -1.546875q-7.140625 0 -12.59375 1.5625q-5.453125 1.5625 -9.125 4.546875q-3.671875 2.984375 -5.546875 7.390625q-1.875 4.390625 -1.875 10.015625q0 5.703125 1.875 10.078125q1.875 4.375 5.546875 7.359375q3.671875 2.984375 9.125 4.53125q5.453125 1.546875 12.59375 1.546875q7.15625 0 12.5625 -1.546875q5.40625 -1.546875 9.03125 -4.53125q3.640625 -2.984375 5.5 -7.359375q1.859375 -4.375 1.859375 -10.078125zm64.21094 -26.875l19.140625 49.765625l19.84375 -49.765625l5.4375 0l-21.609375 53.671875l-7.265625 0l-18.828125 -48.484375l-18.78125 48.484375l-7.265625 0l-21.609375 -53.671875l5.4375 0l19.84375 49.765625l19.09375 -49.765625l6.5625 0zm56.414062 53.671875l0 -53.671875l44.71875 0l0 4.5625l-39.40625 0l0 18.484375l37.421875 0l0 4.53125l-37.421875 0l0 21.515625l40.0 0l0 4.578125l-45.3125 0zm65.265625 -22.96875l0 22.96875l-4.875 0l0 -53.671875l26.71875 0q6.125 0 10.5 0.953125q4.375 0.953125 7.171875 2.890625q2.796875 1.9375 4.078125 4.828125q1.296875 2.890625 1.296875 6.75q0 6.015625 -3.171875 9.640625q-3.15625 3.609375 -10.1875 4.9375l18.3125 23.671875l-6.125 0l-17.3125 -23.125q-1.09375 0.078125 -2.234375 0.125q-1.125 0.03125 -2.328125 0.03125l-21.84375 0zm39.84375 -15.28125q0 -3.4375 -1.21875 -5.5625q-1.203125 -2.125 -3.9375 -3.296875q-2.734375 -1.171875 -7.171875 -1.578125q-4.421875 -0.421875 -10.875 -0.421875l-16.640625 0l0 21.5625l16.484375 0q6.453125 0 10.90625 -0.359375q4.453125 -0.375 7.21875 -1.53125q2.78125 -1.15625 4.0 -3.234375q1.234375 -2.09375 1.234375 -5.578125zm45.859375 15.515625l0 22.734375l-4.875 0l0 -22.734375l-25.203125 -30.9375l5.828125 0l21.828125 26.875l21.765625 -26.875l5.859375 0l-25.203125 30.9375z" fill-rule="nonzero"/></g></svg>